<svg width="34" height="50" viewBox="0 0 34 50" fill="none" xmlns="http://www.w3.org/2000/svg">
<g clip-path="url(#clip0_1301_50)">
<path d="M7.63176 0.473809C6.35527 -0.0694494 5.07803 -0.124426 3.94065 0.316835C0.968809 1.46846 -0.122691 5.71614 1.50827 9.7866C2.80845 13.0346 5.46283 15.2604 8.07576 15.3639L8.08686 27.6201L7.81824 27.6208C7.59477 27.6215 7.41495 27.7987 7.41495 28.0172L7.42161 34.9486C7.42161 34.9494 7.42161 34.9494 7.42161 34.9494C7.42161 34.9501 7.42161 34.9501 7.42161 34.9501L7.42309 36.5994C7.42309 36.6001 7.42309 36.6001 7.42309 36.6001C7.42309 36.6008 7.42309 36.6008 7.42309 36.6008L7.42457 38.2501V38.2509L7.43344 47.8147C7.42161 48.4194 7.63842 48.9894 8.0284 49.3772C8.34438 49.6911 8.7536 49.864 9.18206 49.864C9.18354 49.864 9.18502 49.864 9.1865 49.864C9.61126 49.8633 10.019 49.6889 10.3342 49.3743C10.7257 48.9829 10.944 48.4122 10.9336 47.8139L10.9218 34.9407C10.9218 34.94 10.9218 34.94 10.9218 34.9392C10.9218 34.9392 10.9218 34.9385 10.9218 34.9378L10.9151 28.0078C10.9151 27.9022 10.8722 27.8024 10.796 27.7279C10.7205 27.6541 10.6177 27.6128 10.5111 27.6128C10.5104 27.6128 10.5096 27.6128 10.5096 27.6128L10.2417 27.6136L10.2299 14.9052C12.9501 13.5424 13.864 9.53703 12.2908 5.61053C11.3369 3.22989 9.59498 1.30931 7.63176 0.473809ZM8.49312 28.4107L9.83844 28.4064L10.1063 28.4057L10.1122 34.5464L8.22968 34.5522L8.22376 28.4115L8.49312 28.4107ZM8.2319 36.9936L10.1145 36.9886L10.1152 37.8479L8.23264 37.8537L8.2319 36.9936ZM10.1137 36.1972L8.23116 36.2023L8.23042 35.3429L10.113 35.3378L10.1137 36.1972ZM9.7563 48.8209C9.64086 48.9359 9.44846 49.0733 9.18354 49.0741C9.1828 49.0741 9.18206 49.0741 9.18132 49.0741C8.91344 49.0741 8.71956 48.9374 8.60486 48.8223C8.36584 48.5851 8.23412 48.2234 8.24226 47.8219L8.23412 38.6444L10.1159 38.6386L10.1248 47.8212C10.1307 48.2161 9.9968 48.5807 9.7563 48.8209ZM9.6638 14.3034C9.65196 14.3084 9.64456 14.3186 9.63272 14.3244C9.59794 14.3424 9.5639 14.3627 9.53652 14.3902C9.51802 14.4083 9.50766 14.4307 9.4936 14.4517C9.4788 14.4734 9.46178 14.4922 9.45142 14.5168C9.43662 14.5508 9.43292 14.5884 9.42922 14.626C9.427 14.6398 9.42108 14.6513 9.42108 14.6658C9.42108 14.6658 9.42108 14.6658 9.42108 14.6665V14.6694C9.42108 14.6694 9.42108 14.6701 9.42108 14.6709L9.43218 27.6165H9.35596L8.89568 27.6179L8.88384 14.9725C8.88384 14.9696 8.88162 14.9667 8.88162 14.9631C8.88162 14.9595 8.8831 14.9566 8.8831 14.953C8.88236 14.9334 8.87274 14.9175 8.8683 14.8987C8.86238 14.8669 8.85646 14.8343 8.84314 14.8054C8.8387 14.7974 8.83204 14.7909 8.8276 14.783C8.78024 14.7005 8.70772 14.6369 8.61596 14.6043C8.60042 14.5985 8.58414 14.5985 8.56712 14.5949C8.53826 14.5884 8.51088 14.5775 8.4798 14.5775H8.47906C8.47536 14.5775 8.4724 14.5797 8.4687 14.5797C8.46574 14.5797 8.46204 14.5775 8.45908 14.5775C6.10293 14.686 3.48777 12.56 2.26085 9.49725C0.792689 5.83188 1.67921 2.04354 4.23813 1.05251C5.17201 0.690823 6.23317 0.742183 7.30986 1.19936C9.07994 1.9524 10.6606 3.71021 11.5382 5.89988C12.9738 9.48495 12.1339 13.2545 9.6638 14.3034Z" fill="white"/>
<path d="M10.409 4.4437C10.3942 4.4126 10.3742 4.38583 10.3513 4.35907C9.67419 3.35068 8.82245 2.53615 7.88783 2.02545C7.84639 1.99217 7.79829 1.96685 7.74353 1.95166C7.74205 1.95094 7.74131 1.95166 7.73983 1.95094C7.63327 1.89741 7.52893 1.83737 7.42089 1.79107C6.40191 1.35777 5.38515 1.31364 4.48013 1.66376C2.16467 2.56147 1.29147 5.83549 2.45031 9.06393C2.45105 9.0661 2.45179 9.06972 2.45253 9.07189C2.48953 9.17388 2.52209 9.27588 2.56279 9.37788C3.02233 10.5237 3.70165 11.5321 4.50233 12.3141C4.52379 12.3401 4.54525 12.3647 4.57263 12.385C5.12763 12.913 5.73739 13.3348 6.37823 13.6075C6.94285 13.8476 7.50747 13.9684 8.05285 13.9684C8.49019 13.9684 8.91569 13.8903 9.31899 13.7341C11.7092 12.8074 12.5691 9.34749 11.2363 6.01995C11.0106 5.45716 10.728 4.93126 10.409 4.4437ZM4.16489 2.74304L2.83067 7.34229C2.51543 5.37614 3.01419 3.59446 4.16489 2.74304ZM3.23175 8.85777L5.13355 2.29888C5.33261 2.25331 5.53537 2.22148 5.74553 2.22148C6.18139 2.22148 6.63723 2.32058 7.09825 2.5159C7.11601 2.52385 7.13377 2.53471 7.15153 2.54266L4.62073 11.271C4.09533 10.6489 3.64467 9.90956 3.31537 9.08852C3.28429 9.01185 3.25987 8.93444 3.23175 8.85777ZM5.26601 11.943L7.87377 2.94776C8.51757 3.376 9.10735 3.96917 9.60389 4.68314L7.17817 13.0469C7.01981 13.002 6.86071 12.9499 6.70013 12.8812C6.19767 12.6678 5.71445 12.3452 5.26601 11.943ZM9.02077 12.9984C8.69443 13.1257 8.34441 13.1814 7.98255 13.1727L10.1715 5.62426C10.284 5.84561 10.389 6.07348 10.483 6.3093C11.6544 9.23103 10.998 12.2323 9.02077 12.9984Z" fill="white"/>
<path d="M33.676 9.64769C33.7433 9.45889 33.6567 9.25056 33.4732 9.16158L27.0345 6.04526C26.8502 5.95556 26.626 6.01632 26.515 6.1856C26.404 6.35487 26.4403 6.57911 26.6001 6.70643L31.143 10.3168L29.6689 14.6853C29.6622 14.7048 29.6644 14.7251 29.6615 14.7453C29.6578 14.7663 29.6482 14.7866 29.6482 14.8083C29.6482 14.809 29.6482 14.8097 29.6482 14.8097L29.6822 27.615L29.4136 27.6164C29.1901 27.6172 29.0103 27.7944 29.011 28.0129L29.0303 34.9457C29.0303 34.9457 29.0295 34.9464 29.0295 34.9472L29.0303 34.9479L29.0347 36.5958C29.0347 36.5965 29.034 36.5972 29.034 36.5979C29.034 36.5986 29.0347 36.5994 29.0347 36.6001L29.0391 38.248C29.0391 38.248 29.0391 38.248 29.0391 38.2487C29.0391 38.2487 29.0391 38.2487 29.0391 38.2494L29.065 47.8002C29.0303 48.3803 29.2323 48.9424 29.6193 49.341C29.9464 49.6788 30.3704 49.8647 30.8137 49.8647C30.8159 49.8647 30.8174 49.8647 30.8196 49.8647C31.2369 49.8633 31.6402 49.6889 31.9555 49.3735C32.3529 48.9764 32.5741 48.4049 32.5638 47.8125L32.5282 34.9349L32.5097 28.002C32.509 27.8971 32.4668 27.7958 32.3906 27.7228C32.3144 27.6483 32.2123 27.6078 32.1057 27.6078C32.105 27.6078 32.1042 27.6078 32.1035 27.6078L31.8356 27.6085L31.8016 14.8647L33.676 9.64769ZM30.0877 28.4056C30.0877 28.4056 30.0885 28.4056 30.0892 28.4056L30.531 28.4042L30.9535 28.4028L31.7024 28.3999L31.7187 34.5421L29.8369 34.5486L29.8206 28.4064L30.087 28.4049C30.087 28.4049 30.087 28.4056 30.0877 28.4056ZM29.8428 36.9914L31.7246 36.9842L31.7276 37.8443L29.8457 37.8508L29.8428 36.9914ZM31.7231 36.1936L29.8413 36.2001L29.8383 35.34L31.7202 35.3335L31.7231 36.1936ZM31.3768 48.8209C31.2621 48.9359 31.0712 49.0733 30.8159 49.0741C30.8151 49.0741 30.8144 49.0741 30.8129 49.0741C30.5939 49.0741 30.3778 48.9757 30.2054 48.797C29.9715 48.5561 29.8494 48.2096 29.8716 47.8219L29.8472 38.6422L31.729 38.6357L31.7535 47.8204C31.7609 48.2038 31.6203 48.5771 31.3768 48.8209ZM30.4903 27.6128L30.457 14.8719L31.9977 10.3067C32.0509 10.1504 31.9991 9.979 31.8696 9.87556L29.9138 8.32174L32.7939 9.71569L31.0164 14.6665C31.0083 14.6882 31.0112 14.7092 31.0068 14.7309C31.0031 14.7533 30.9935 14.7743 30.9935 14.7974C30.9935 14.7974 30.9935 14.7982 30.9935 14.7989L31.0268 27.6107L30.8928 27.6114L30.4903 27.6128Z" fill="white"/>
<path d="M23.8881 5.03473C22.9698 4.46904 21.9086 4.17029 20.8201 4.17029C20.8179 4.17029 20.8164 4.17029 20.8149 4.17029C17.6248 4.17173 15.0281 6.72092 15.0266 9.85099C15.0244 12.5832 17.018 14.9146 19.716 15.421L19.7086 27.6129H19.4392C19.2165 27.6129 19.0359 27.7901 19.0359 28.0078L19.0315 34.9421C19.0315 34.9421 19.0315 34.9421 19.0315 34.9429C19.0315 34.9436 19.0315 34.9429 19.0315 34.9436L19.0234 47.8125C19.013 48.4187 19.2313 48.9894 19.622 49.3779C19.9373 49.6918 20.3457 49.8647 20.7705 49.8647C20.7712 49.8647 20.772 49.8647 20.772 49.8647C21.1967 49.864 21.606 49.6911 21.9212 49.3764C22.3134 48.9865 22.5324 48.4158 22.5221 47.8176L22.528 38.2422L22.5346 28.0078C22.5346 27.9022 22.4925 27.8017 22.4162 27.7279C22.34 27.6541 22.2379 27.6121 22.1306 27.6121C22.1306 27.6121 22.1306 27.6121 22.1299 27.6121H21.8627L21.8709 14.3613C21.8709 14.349 21.865 14.3374 21.8635 14.3251C21.8612 14.2983 21.8553 14.273 21.8472 14.2477C21.8398 14.2231 21.8317 14.2007 21.8198 14.179C21.8072 14.1558 21.7932 14.1363 21.7769 14.1168C21.7606 14.0965 21.7436 14.0791 21.7244 14.0625C21.7044 14.0459 21.6844 14.0336 21.6622 14.0213C21.6378 14.0075 21.6141 13.9974 21.5875 13.9887C21.5749 13.9851 21.566 13.9771 21.5534 13.9743C19.5717 13.5482 18.1879 11.8526 18.1901 9.85026C18.1916 7.51881 20.1237 5.62139 22.4969 5.61994C22.8617 5.61994 23.2236 5.66407 23.5721 5.75232C23.766 5.80151 23.9658 5.70458 24.0442 5.5259C24.1227 5.34723 24.0568 5.13889 23.8881 5.03473ZM20.1126 28.4042L20.5056 28.4035H21.7258L21.7229 34.5457L19.8403 34.5472L19.844 28.4042H20.1126C20.1119 28.4042 20.1119 28.4042 20.1126 28.4042ZM19.8388 36.9886L21.7207 36.9871L21.7199 37.8472L19.8381 37.8487L19.8388 36.9886ZM21.7207 36.1965L19.8388 36.1979L19.8396 35.3378L21.7214 35.3371L21.7207 36.1965ZM21.3455 48.8216C21.23 48.9366 21.0369 49.0741 20.772 49.0741C20.772 49.0741 20.772 49.0741 20.7712 49.0741C20.5063 49.0741 20.3139 48.9381 20.1992 48.8231C19.9587 48.5844 19.8255 48.2212 19.8322 47.8197L19.8381 38.6393L21.7199 38.6386L21.714 47.8241C21.7207 48.2183 21.586 48.5822 21.3455 48.8216ZM17.3806 9.85026C17.3791 12.0812 18.9094 14.0538 21.0621 14.6651L21.0539 27.6129H20.5167L20.5248 15.0897C20.5248 15.0709 20.5167 15.055 20.5137 15.0376C20.51 15.0109 20.5071 14.9848 20.4974 14.9595C20.4893 14.9356 20.4767 14.9146 20.4634 14.8929C20.4501 14.8712 20.4375 14.8503 20.4205 14.8307C20.4035 14.8112 20.3835 14.7967 20.3628 14.7808C20.342 14.7656 20.3228 14.7504 20.2991 14.7389C20.2754 14.7273 20.2495 14.7208 20.2236 14.7135C20.2051 14.7092 20.1903 14.6991 20.1711 14.6962C17.6973 14.388 15.8325 12.3047 15.8347 9.85171C15.8362 7.15712 18.0702 4.96311 20.8149 4.96167C20.9659 4.97541 21.1079 4.96818 21.253 4.97975C19.033 5.52735 17.3828 7.50362 17.3806 9.85026Z" fill="white"/>
</g>
<defs>
<clipPath id="clip0_1301_50">
<rect width="33.1046" height="50" fill="white" transform="translate(0.618042)"/>
</clipPath>
</defs>
</svg>
