<svg width="41" height="50" viewBox="0 0 41 50" fill="none" xmlns="http://www.w3.org/2000/svg">
<path d="M14.2149 4.16718C8.99987 4.16718 4.77075 8.36321 4.77075 13.5406C4.77075 14.1174 5.24001 14.5849 5.82074 14.5849C6.40003 14.5849 6.86928 14.1174 6.86928 13.5406C6.86928 11.5938 7.63437 9.76286 9.021 8.38492C10.4091 7.00844 12.254 6.25 14.2149 6.25C14.7949 6.25 15.2634 5.78321 15.2634 5.20786C15.2634 4.63396 14.7949 4.16718 14.2149 4.16718Z" fill="white"/>
<path d="M40.4494 13.5405C40.4494 6.06247 34.3411 0 26.8075 0C24.537 0 22.3955 0.552186 20.5112 1.52629C18.6269 0.552186 16.4854 0 14.2149 0C6.68132 0 0.572998 6.06247 0.572998 13.5405C0.572998 15.5958 1.03424 17.5433 1.8598 19.2874L5.97015 28.1253C4.98646 31.2503 6.58805 50 13.1656 50C15.2343 50 18.4819 32.5703 20.5097 32.5566C20.5112 32.5566 20.5112 32.5566 20.5127 32.5566C22.5405 32.5566 25.7867 50 27.8539 50C34.4314 50 36.0345 31.2503 35.0493 28.1253L39.1626 19.2874C39.9882 17.5433 40.4494 15.5958 40.4494 13.5405ZM37.263 18.4024L37.2615 18.4081L37.2564 18.4147L33.1446 27.2511L32.8051 27.9799L33.0463 28.7463C33.251 29.3932 33.3829 32.5139 32.7701 36.7982C32.1384 41.2265 30.9849 44.8306 29.6092 46.6876C29.2573 47.1624 28.9119 47.501 28.5716 47.7008C28.3858 47.31 28.1249 46.6862 27.7759 45.7034C27.2564 44.2321 26.6982 42.3924 26.1568 40.6114C23.8718 33.0784 22.9551 30.4716 20.5127 30.4716H20.4959C18.0629 30.4889 17.1492 33.0907 14.867 40.6085C14.3256 42.3874 13.766 44.2292 13.245 45.7019C12.896 46.6862 12.6352 47.31 12.4472 47.7008C12.1091 47.501 11.7615 47.1624 11.4096 46.6876C10.0339 44.8306 8.88259 41.2265 8.24793 36.7982C7.63586 32.5139 7.76847 29.3932 7.9725 28.7463L8.21441 27.9799L7.87413 27.2525L3.76524 18.4147L3.76232 18.4081L3.75941 18.4024C3.03731 16.8746 2.67298 15.2405 2.67298 13.5405C2.67298 10.4814 3.87308 7.60396 6.05322 5.44008C8.23263 3.27621 11.1319 2.08282 14.2149 2.08282C16.0934 2.08282 17.8859 2.51777 19.5414 3.37391L20.5112 3.87616L21.481 3.37391C23.1365 2.51777 24.929 2.08282 26.8075 2.08282C29.8912 2.08282 32.7898 3.27621 34.9699 5.44008C37.1493 7.60324 38.3494 10.4814 38.3494 13.5405C38.3494 15.2405 37.9851 16.8746 37.263 18.4024Z" fill="white"/>
</svg>
