<svg width="50" height="50" viewBox="0 0 50 50" fill="none" xmlns="http://www.w3.org/2000/svg">
<g clip-path="url(#clip0_1301_61)">
<path d="M38.6501 43.7522C37.5373 43.7522 36.49 43.1706 35.9664 42.325L31.8991 33.9478C31.8931 33.9346 31.8849 33.9244 31.8767 33.9134L33.041 31.7811C33.7272 32.1432 34.3083 32.6772 34.6909 33.3414L39.8547 43.7522H38.6501ZM29.774 33.3553H11.8406L13.4308 31.2763H30.9115L29.774 33.3553ZM27.7579 37.5132H12.494L11.4333 35.4342H29.8799C29.8799 36.5827 28.9274 37.5132 27.7579 37.5132ZM22.5508 47.9108H18.106L17.2565 39.595H23.3996L22.5508 47.9108ZM9.86246 32.4723L2.88316 19.8443C2.90479 19.8414 2.92941 19.8414 2.95104 19.8392H3.34934C3.50449 19.8392 3.65889 19.8312 3.80806 19.8151C5.18946 19.8341 6.83937 20.1508 7.7322 21.3973L11.8264 29.9069L9.86246 32.4723ZM2.28869 17.7603V12.5629H3.35009C4.52188 12.5629 5.47215 13.4956 5.47215 14.6418V15.6813C5.47215 16.723 4.68523 17.5876 3.66187 17.7368C3.38216 17.7368 3.1114 17.7442 2.86153 17.7603H2.28869ZM48.9643 43.5795C48.8688 43.0163 48.3266 42.6337 47.7433 42.7259L42.1588 43.6381L36.5683 32.3765C35.4428 30.4153 33.3185 29.1974 31.0197 29.1974H14.619L15.6797 27.1184H25.6328C26.2191 27.1184 26.6942 26.6525 26.6942 26.079C26.6942 25.5047 26.2191 25.0395 25.6328 25.0395H15.0233C14.622 25.0395 14.2528 25.2597 14.0738 25.6137L13.0608 27.5968L9.61557 20.4368C9.59319 20.3893 9.56933 20.3476 9.53874 20.3015C8.80703 19.2277 7.79187 18.5817 6.7148 18.2072C7.26527 17.505 7.59346 16.6308 7.59346 15.6813V14.6418C7.59346 12.3508 5.69144 10.4839 3.34934 10.4839H1.22728C0.641758 10.4839 0.166626 10.9492 0.166626 11.5234V18.7997C0.166626 18.8422 0.174831 18.8817 0.180052 18.9219C0.156184 19.1267 0.19124 19.3396 0.294173 19.5261L8.77421 34.8702L10.8903 39.0179C11.0693 39.3712 11.4363 39.595 11.8406 39.595H15.1232L15.9728 47.9108H11.8406C11.2543 47.9108 10.7792 48.3753 10.7792 48.9503C10.7792 49.5245 11.2543 49.989 11.8406 49.989H28.8185C29.4048 49.989 29.8792 49.5245 29.8792 48.9503C29.8792 48.3753 29.4048 47.9108 28.8185 47.9108H24.6833L25.5329 39.595H27.7579C29.2668 39.595 30.5938 38.813 31.3449 37.6463L34.0994 43.3089C35.0519 44.8641 36.7958 45.8319 38.6494 45.8319H41.5531C41.6098 45.8319 41.6672 45.826 41.7269 45.818L48.0931 44.7785C48.6704 44.6827 49.062 44.1487 48.9636 43.5795" fill="white"/>
<path d="M37.8386 26.3789C37.2531 26.3789 36.778 26.8368 36.778 27.4184C36.778 27.9904 37.2531 28.4586 37.8386 28.4586C38.4219 28.4586 38.9 27.9904 38.9 27.4184C38.9 26.8368 38.4219 26.3789 37.8386 26.3789Z" fill="white"/>
<path d="M23.0722 6.88202C27.4677 6.88202 31.1092 9.5213 31.9237 12.0787H14.2222C15.0367 9.5213 18.6781 6.88202 23.0722 6.88202ZM27.8205 2.62245C28.4232 2.03286 29.4704 2.03505 30.0724 2.62245C30.6907 3.2318 30.6907 4.2208 30.0724 4.82941L28.7887 6.08687C27.7608 5.59237 26.6211 5.21492 25.3941 5.00205L27.8205 2.62245ZM12.9907 14.1605H33.1521C33.7384 14.1605 34.2136 13.6924 34.2136 13.1189C34.2136 11.0341 32.8702 8.81686 30.6564 7.1973L31.5731 6.29901C32.4331 5.45631 32.7777 4.30273 32.6181 3.20473H34.6536C35.8195 3.20473 36.7779 4.14033 36.7779 5.2866V23.2605C36.7779 23.8318 37.2531 24.3 37.8386 24.3C38.4219 24.3 38.9 23.8318 38.9 23.2605V5.2866C38.9 2.98674 37.0002 1.12579 34.6536 1.12579H31.5433C30.094 -0.264807 27.7579 -0.256761 26.3198 1.15212L22.5859 4.81332C16.4531 5.02838 11.9301 9.29527 11.9301 13.1189C11.9301 13.6924 12.4044 14.1605 12.9907 14.1605Z" fill="white"/>
</g>
<defs>
<clipPath id="clip0_1301_61">
<rect width="48.9782" height="50" fill="white" transform="translate(0.0673828)"/>
</clipPath>
</defs>
</svg>
