<svg width="157" height="50" viewBox="0 0 157 50" fill="none" xmlns="http://www.w3.org/2000/svg">
<path d="M35.8434 26.2735C35.7106 26.5952 35.576 26.917 35.4414 27.2369C34.9772 27.2831 34.4457 27.3418 33.9428 27.4164C32.6242 27.6102 30.9675 28.1719 27.6692 29.7965C24.3726 31.4248 21.5705 35.2002 19.3453 38.6255C17.1201 42.0526 14.9218 49.6906 13.1356 49.9803C11.351 50.2718 9.89446 47.2518 9.20655 46.0324C8.52031 44.8113 6.81651 41.0074 6.04786 39.0912C5.27922 37.1733 3.00692 30.3405 1.7976 25.8487C0.589967 21.3551 0.113978 17.0197 0.00297 11.4045C-0.106356 5.78934 2.82358 2.6929 5.31454 1.64772C5.34818 1.6335 5.38013 1.62105 5.41545 1.60861C6.7055 1.13223 8.95594 1.49663 11.5932 2.5738C14.1918 3.63676 17.1655 5.39473 19.9592 7.72684C19.9592 7.72684 15.1421 5.40184 11.79 5.49072C8.4379 5.57782 6.10337 7.55264 4.89405 10.1069C3.68474 12.663 3.41058 17.9494 3.84957 22.2474C4.29024 26.5455 6.04786 33.1667 7.14617 36.768C8.24616 40.3692 10.1972 43.6505 11.4334 44.5215C12.6697 45.3925 13.4114 44.086 15.0227 40.4066C16.634 36.7289 20.8473 32.5464 22.9715 30.7262C24.9377 29.0429 31.1525 26.6788 35.8434 26.2735Z" fill="#0D6EFD"/>
<path d="M5.16821 0.911803C6.96284 0.0976985 11.2854 0.485199 15.4247 2.96306C19.5656 5.44093 22.9715 7.5704 27.0738 6.37057C31.1777 5.17074 36.0133 3.54431 38.9803 5.24718C41.9472 6.95182 41.9102 11.5201 40.7379 16.1683C39.5656 20.8147 34.804 32.5854 32.3854 36.2649C29.9684 39.9426 29.1998 41.4535 29.1998 41.4535C45.0605 24.2613 46.7088 10.3984 46.1049 7.72682C45.5011 5.0552 44.8048 4.00825 43.5585 3.15681C42.3139 2.30538 39.1266 0.602515 34.73 1.91788C30.3351 3.23502 28.6498 4.16289 27.4775 4.58949C26.3052 5.0161 23.3197 5.28628 21.7084 4.82235C20.0954 4.35664 14.7654 0.833592 11.8724 0.252343C7.55825 -0.579537 5.16821 0.911803 5.16821 0.911803Z" fill="#0D6EFD"/>
<path d="M56.4876 25.2402C55.4742 25.2402 54.5646 25.0449 53.7588 24.6542C52.9652 24.2513 52.3425 23.7018 51.8908 23.0059C51.439 22.2977 51.2131 21.5163 51.2131 20.6617V16.6326C51.2131 15.7779 51.439 15.0087 51.8908 14.325C52.3425 13.6291 52.9652 13.0858 53.7588 12.6951C54.5646 12.2922 55.4742 12.0907 56.4876 12.0907C57.5132 12.0907 58.4228 12.2922 59.2164 12.6951C60.0222 13.0858 60.651 13.6291 61.1027 14.325C61.5545 15.0087 61.7804 15.7779 61.7804 16.6326V20.6617C61.7804 21.5163 61.5545 22.2977 61.1027 23.0059C60.651 23.7018 60.0222 24.2513 59.2164 24.6542C58.4106 25.0449 57.501 25.2402 56.4876 25.2402ZM56.4876 23.7385C57.6231 23.7385 58.5082 23.4576 59.1431 22.896C59.778 22.3344 60.0955 21.5835 60.0955 20.6434V16.6692C60.0955 15.7291 59.778 14.9843 59.1431 14.4349C58.5082 13.8733 57.6231 13.5925 56.4876 13.5925C55.3643 13.5925 54.4853 13.8733 53.8504 14.4349C53.2155 14.9843 52.898 15.7291 52.898 16.6692V20.6434C52.898 21.5835 53.2155 22.3344 53.8504 22.896C54.4853 23.4576 55.3643 23.7385 56.4876 23.7385Z" fill="#1B75BC"/>
<path d="M64.7654 25.0754C64.5212 25.0754 64.3137 25.0021 64.1427 24.8556C63.9718 24.6969 63.8863 24.5015 63.8863 24.2696V13.0613C63.8863 12.8294 63.9657 12.6401 64.1244 12.4936C64.2954 12.3349 64.509 12.2555 64.7654 12.2555H69.0509C70.0887 12.2555 71.0044 12.4509 71.798 12.8416C72.5916 13.2323 73.2082 13.7817 73.6477 14.4898C74.0995 15.1858 74.3254 15.9855 74.3254 16.889V20.4053C74.3254 21.3088 74.0995 22.1146 73.6477 22.8228C73.2082 23.5309 72.5855 24.0864 71.7797 24.4893C70.9861 24.88 70.0765 25.0754 69.0509 25.0754H64.7654ZM68.8678 23.5736C70.0399 23.5736 70.9556 23.2989 71.6149 22.7495C72.2742 22.1879 72.6038 21.4126 72.6038 20.4236V16.8707C72.6038 15.8939 72.2742 15.1308 71.6149 14.5814C70.9556 14.032 70.0399 13.7573 68.8678 13.7573H65.6079V23.5736H68.8678Z" fill="#1B75BC"/>
<path d="M81.5264 25.2402C80.513 25.2402 79.6034 25.0449 78.7976 24.6542C78.004 24.2513 77.3813 23.7018 76.9295 23.0059C76.4778 22.2977 76.2519 21.5163 76.2519 20.6617V16.6326C76.2519 15.7779 76.4778 15.0087 76.9295 14.325C77.3813 13.6291 78.004 13.0858 78.7976 12.6951C79.6034 12.2922 80.513 12.0907 81.5264 12.0907C82.552 12.0907 83.4616 12.2922 84.2552 12.6951C85.061 13.0858 85.6898 13.6291 86.1415 14.325C86.5933 15.0087 86.8191 15.7779 86.8191 16.6326V20.6617C86.8191 21.5163 86.5933 22.2977 86.1415 23.0059C85.6898 23.7018 85.061 24.2513 84.2552 24.6542C83.4494 25.0449 82.5398 25.2402 81.5264 25.2402ZM81.5264 23.7385C82.6618 23.7385 83.547 23.4576 84.1819 22.896C84.8168 22.3344 85.1343 21.5835 85.1343 20.6434V16.6692C85.1343 15.7291 84.8168 14.9843 84.1819 14.4349C83.547 13.8733 82.6618 13.5925 81.5264 13.5925C80.4031 13.5925 79.524 13.8733 78.8891 14.4349C78.2543 14.9843 77.9368 15.7291 77.9368 16.6692V20.6434C77.9368 21.5835 78.2543 22.3344 78.8891 22.896C79.524 23.4576 80.4031 23.7385 81.5264 23.7385Z" fill="#1B75BC"/>
<path d="M88.9251 13.5741C88.9251 13.1102 89.0655 12.75 89.3463 12.4936C89.6394 12.225 90.0423 12.0907 90.5551 12.0907L97.6609 22.896L97.7891 22.7861L97.258 21.907V12.0907C97.8197 12.0907 98.2409 12.2128 98.5217 12.457C98.8147 12.7012 98.9612 13.0552 98.9612 13.5192V23.885C98.9612 24.2757 98.8208 24.5992 98.54 24.8556C98.2714 25.112 97.9234 25.2402 97.4961 25.2402L90.2254 14.1968L90.0972 14.3067L90.6283 15.1858V23.8117C90.6283 24.2757 90.4818 24.6297 90.1888 24.8739C89.908 25.1181 89.4868 25.2402 88.9251 25.2402V13.5741Z" fill="#1B75BC"/>
<path d="M104.897 13.7756H100.428C100.428 12.7622 100.904 12.2555 101.856 12.2555H111.068C111.068 13.2689 110.592 13.7756 109.64 13.7756H106.618V23.8117C106.618 24.2757 106.472 24.6297 106.179 24.8739C105.886 25.1181 105.458 25.2402 104.897 25.2402V13.7756Z" fill="#1B75BC"/>
<path d="M116.616 25.2402C115.603 25.2402 114.693 25.0449 113.888 24.6542C113.094 24.2513 112.471 23.7018 112.02 23.0059C111.568 22.2977 111.342 21.5163 111.342 20.6617V16.6326C111.342 15.7779 111.568 15.0087 112.02 14.325C112.471 13.6291 113.094 13.0858 113.888 12.6951C114.693 12.2922 115.603 12.0907 116.616 12.0907C117.642 12.0907 118.552 12.2922 119.345 12.6951C120.151 13.0858 120.78 13.6291 121.232 14.325C121.683 15.0087 121.909 15.7779 121.909 16.6326V20.6617C121.909 21.5163 121.683 22.2977 121.232 23.0059C120.78 23.7018 120.151 24.2513 119.345 24.6542C118.539 25.0449 117.63 25.2402 116.616 25.2402ZM116.616 23.7385C117.752 23.7385 118.637 23.4576 119.272 22.896C119.907 22.3344 120.224 21.5835 120.224 20.6434V16.6692C120.224 15.7291 119.907 14.9843 119.272 14.4349C118.637 13.8733 117.752 13.5925 116.616 13.5925C115.493 13.5925 114.614 13.8733 113.979 14.4349C113.344 14.9843 113.027 15.7291 113.027 16.6692V20.6434C113.027 21.5835 113.344 22.3344 113.979 22.896C114.614 23.4576 115.493 23.7385 116.616 23.7385Z" fill="#1B75BC"/>
<path d="M128.737 13.0613C128.737 12.8294 128.816 12.6401 128.975 12.4936C129.146 12.3349 129.359 12.2555 129.616 12.2555H134.671C135.855 12.2555 136.795 12.6035 137.491 13.2994C138.199 13.9832 138.553 14.8989 138.553 16.0465C138.553 17.4872 137.924 18.5067 136.667 19.105V19.1599C137.216 19.3919 137.637 19.746 137.93 20.2222C138.223 20.6861 138.37 21.2538 138.37 21.9254V23.8117C138.37 24.2757 138.223 24.6297 137.93 24.8739C137.637 25.1181 137.21 25.2402 136.648 25.2402V22.0352C136.648 21.3149 136.484 20.7716 136.154 20.4053C135.837 20.0268 135.36 19.8376 134.725 19.8376H130.44V23.8117C130.44 24.2757 130.293 24.6297 130 24.8739C129.72 25.1181 129.298 25.2402 128.737 25.2402V13.0613ZM134.616 18.3541C135.287 18.3541 135.818 18.1466 136.209 17.7314C136.612 17.3163 136.813 16.7486 136.813 16.0282C136.813 15.2957 136.624 14.734 136.246 14.3433C135.867 13.9526 135.324 13.7573 134.616 13.7573H130.44V18.3541H134.616Z" fill="#1B75BC"/>
<path d="M141.301 13.5192C141.301 13.0674 141.447 12.7195 141.74 12.4753C142.045 12.2189 142.473 12.0907 143.022 12.0907V23.8117C143.022 24.2635 142.869 24.6175 142.564 24.8739C142.271 25.1181 141.85 25.2402 141.301 25.2402V13.5192Z" fill="#1B75BC"/>
<path d="M150.777 25.2402C149.763 25.2402 148.854 25.0449 148.048 24.6542C147.254 24.2513 146.631 23.7018 146.18 23.0059C145.728 22.2977 145.502 21.5163 145.502 20.6617V16.6326C145.502 15.7779 145.728 15.0087 146.18 14.325C146.631 13.6291 147.254 13.0858 148.048 12.6951C148.854 12.2922 149.763 12.0907 150.777 12.0907C151.802 12.0907 152.712 12.2922 153.505 12.6951C154.311 13.0858 154.94 13.6291 155.392 14.325C155.843 15.0087 156.069 15.7779 156.069 16.6326V20.6617C156.069 21.5163 155.843 22.2977 155.392 23.0059C154.94 23.7018 154.311 24.2513 153.505 24.6542C152.699 25.0449 151.79 25.2402 150.777 25.2402ZM150.777 23.7385C151.912 23.7385 152.797 23.4576 153.432 22.896C154.067 22.3344 154.384 21.5835 154.384 20.6434V16.6692C154.384 15.7291 154.067 14.9843 153.432 14.4349C152.797 13.8733 151.912 13.5925 150.777 13.5925C149.653 13.5925 148.774 13.8733 148.139 14.4349C147.504 14.9843 147.187 15.7291 147.187 16.6692V20.6434C147.187 21.5835 147.504 22.3344 148.139 22.896C148.774 23.4576 149.653 23.7385 150.777 23.7385Z" fill="#1B75BC"/>
<path d="M54.0993 35.8748C53.1144 35.8748 52.3249 35.5503 51.7307 34.9012C51.1398 34.2522 50.8443 33.4077 50.8443 32.3679C50.8443 31.2506 51.1462 30.3594 51.7501 29.6941C52.354 29.0289 53.1758 28.6963 54.2156 28.6963C55.1747 28.6963 55.9464 29.0192 56.5309 29.6651C57.1187 30.3109 57.4125 31.1554 57.4125 32.1984C57.4125 33.3318 57.1122 34.228 56.5116 34.8867C55.9109 35.5455 55.1069 35.8748 54.0993 35.8748ZM54.1575 29.4326C53.4277 29.4326 52.8351 29.6958 52.3798 30.2221C51.9245 30.7485 51.6968 31.4395 51.6968 32.2953C51.6968 33.151 51.918 33.8404 52.3604 34.3636C52.806 34.8835 53.3857 35.1434 54.0993 35.1434C54.8614 35.1434 55.4621 34.8948 55.9012 34.3975C56.3404 33.9002 56.56 33.2043 56.56 32.3098C56.56 31.3927 56.3469 30.6839 55.9206 30.1834C55.4944 29.6828 54.9066 29.4326 54.1575 29.4326Z" fill="#0D6EFD"/>
<path d="M62.9054 35.7586H62.111V34.9158H62.0916C61.7235 35.5552 61.1552 35.8748 60.3866 35.8748C59.7634 35.8748 59.2645 35.6536 58.8899 35.2112C58.5185 34.7656 58.3328 34.1601 58.3328 33.3948C58.3328 32.5746 58.5395 31.9175 58.9528 31.4234C59.3662 30.9293 59.9168 30.6823 60.6046 30.6823C61.2859 30.6823 61.7816 30.9503 62.0916 31.4864H62.111V28.4154H62.9054V35.7586ZM62.111 33.5159V32.7845C62.111 32.3841 61.9786 32.045 61.7138 31.7673C61.449 31.4896 61.1132 31.3507 60.7063 31.3507C60.2219 31.3507 59.8409 31.5283 59.5632 31.8835C59.2855 32.2388 59.1466 32.7296 59.1466 33.3561C59.1466 33.9276 59.279 34.3797 59.5438 34.7123C59.8118 35.0417 60.1703 35.2064 60.6191 35.2064C61.0615 35.2064 61.42 35.0466 61.6944 34.7269C61.9722 34.4072 62.111 34.0035 62.111 33.5159Z" fill="#0D6EFD"/>
<path d="M66.5867 35.8748C65.8537 35.8748 65.2676 35.644 64.8284 35.1822C64.3924 34.7172 64.1745 34.102 64.1745 33.3367C64.1745 32.5036 64.4021 31.8529 64.8575 31.3846C65.3128 30.9164 65.9279 30.6823 66.7029 30.6823C67.4424 30.6823 68.0188 30.9099 68.4322 31.3653C68.8488 31.8206 69.057 32.4519 69.057 33.2592C69.057 34.0503 68.8326 34.6849 68.3837 35.1628C67.9381 35.6375 67.3391 35.8748 66.5867 35.8748ZM66.6448 31.3507C66.1346 31.3507 65.731 31.5251 65.4339 31.8739C65.1368 32.2194 64.9882 32.6973 64.9882 33.3076C64.9882 33.8953 65.1384 34.3587 65.4387 34.6978C65.739 35.0369 66.1411 35.2064 66.6448 35.2064C67.1583 35.2064 67.5522 35.0401 67.8267 34.7075C68.1044 34.3749 68.2433 33.9018 68.2433 33.2883C68.2433 32.6682 68.1044 32.1903 67.8267 31.8545C67.5522 31.5186 67.1583 31.3507 66.6448 31.3507Z" fill="#0D6EFD"/>
<path d="M74.4434 35.7586H73.649V32.9298C73.649 31.8771 73.2647 31.3507 72.4961 31.3507C72.099 31.3507 71.7696 31.5009 71.508 31.8012C71.2497 32.0983 71.1205 32.4745 71.1205 32.9298V35.7586H70.3261V30.7985H71.1205V31.622H71.1399C71.5145 30.9955 72.057 30.6823 72.7674 30.6823C73.3099 30.6823 73.7249 30.8583 74.0123 31.2103C74.2997 31.559 74.4434 32.0644 74.4434 32.7264V35.7586Z" fill="#0D6EFD"/>
<path d="M78.2458 35.7102C78.0585 35.8135 77.8114 35.8652 77.5046 35.8652C76.636 35.8652 76.2017 35.3808 76.2017 34.412V31.4767H75.3491V30.7985H76.2017V29.5876L76.996 29.3309V30.7985H78.2458V31.4767H76.996V34.2715C76.996 34.6042 77.0526 34.8415 77.1656 34.9836C77.2786 35.1257 77.4659 35.1967 77.7275 35.1967C77.9277 35.1967 78.1004 35.1418 78.2458 35.032V35.7102Z" fill="#0D6EFD"/>
<path d="M81.3797 35.8748C80.6467 35.8748 80.0606 35.644 79.6214 35.1822C79.1854 34.7172 78.9675 34.102 78.9675 33.3367C78.9675 32.5036 79.1951 31.8529 79.6505 31.3846C80.1058 30.9164 80.7209 30.6823 81.4959 30.6823C82.2354 30.6823 82.8119 30.9099 83.2252 31.3653C83.6418 31.8206 83.85 32.4519 83.85 33.2592C83.85 34.0503 83.6256 34.6849 83.1768 35.1628C82.7311 35.6375 82.1321 35.8748 81.3797 35.8748ZM81.4378 31.3507C80.9276 31.3507 80.524 31.5251 80.2269 31.8739C79.9298 32.2194 79.7812 32.6973 79.7812 33.3076C79.7812 33.8953 79.9314 34.3587 80.2317 34.6978C80.532 35.0369 80.9341 35.2064 81.4378 35.2064C81.9513 35.2064 82.3452 35.0401 82.6197 34.7075C82.8974 34.3749 83.0363 33.9018 83.0363 33.2883C83.0363 32.6682 82.8974 32.1903 82.6197 31.8545C82.3452 31.5186 81.9513 31.3507 81.4378 31.3507Z" fill="#0D6EFD"/>
<path d="M85.9135 35.7586H85.1191V28.4154H85.9135V35.7586Z" fill="#0D6EFD"/>
<path d="M89.5948 35.8748C88.8618 35.8748 88.2757 35.644 87.8365 35.1822C87.4006 34.7172 87.1826 34.102 87.1826 33.3367C87.1826 32.5036 87.4102 31.8529 87.8656 31.3846C88.3209 30.9164 88.936 30.6823 89.7111 30.6823C90.4505 30.6823 91.027 30.9099 91.4403 31.3653C91.8569 31.8206 92.0651 32.4519 92.0651 33.2592C92.0651 34.0503 91.8407 34.6849 91.3919 35.1628C90.9462 35.6375 90.3472 35.8748 89.5948 35.8748ZM89.6529 31.3507C89.1427 31.3507 88.7391 31.5251 88.442 31.8739C88.1449 32.2194 87.9963 32.6973 87.9963 33.3076C87.9963 33.8953 88.1465 34.3587 88.4468 34.6978C88.7471 35.0369 89.1492 35.2064 89.6529 35.2064C90.1664 35.2064 90.5603 35.0401 90.8348 34.7075C91.1125 34.3749 91.2514 33.9018 91.2514 33.2883C91.2514 32.6682 91.1125 32.1903 90.8348 31.8545C90.5603 31.5186 90.1664 31.3507 89.6529 31.3507Z" fill="#0D6EFD"/>
<path d="M97.5677 35.3614C97.5677 37.1827 96.6958 38.0933 94.9521 38.0933C94.3385 38.0933 93.8025 37.9771 93.3439 37.7446V36.9502C93.9026 37.2602 94.4354 37.4152 94.9424 37.4152C96.163 37.4152 96.7733 36.7661 96.7733 35.468V34.9255H96.754C96.3761 35.5584 95.8078 35.8748 95.0489 35.8748C94.4322 35.8748 93.9349 35.6553 93.557 35.2161C93.1825 34.7737 92.9952 34.1811 92.9952 33.4384C92.9952 32.5956 93.197 31.9255 93.6006 31.4282C94.0075 30.9309 94.5629 30.6823 95.2669 30.6823C95.9354 30.6823 96.431 30.9503 96.754 31.4864H96.7733V30.7985H97.5677V35.3614ZM96.7733 33.5159V32.7845C96.7733 32.3905 96.6393 32.0531 96.3713 31.7721C96.1065 31.4912 95.7755 31.3507 95.3783 31.3507C94.8875 31.3507 94.5032 31.5299 94.2255 31.8884C93.9478 32.2436 93.8089 32.7425 93.8089 33.3851C93.8089 33.9373 93.9413 34.3797 94.2061 34.7123C94.4741 35.0417 94.8277 35.2064 95.2669 35.2064C95.7125 35.2064 96.0742 35.0482 96.3519 34.7317C96.6329 34.4152 96.7733 34.01 96.7733 33.5159Z" fill="#0D6EFD"/>
<path d="M99.5827 29.5391C99.4407 29.5391 99.3196 29.4907 99.2195 29.3938C99.1194 29.2969 99.0693 29.1742 99.0693 29.0257C99.0693 28.8772 99.1194 28.7544 99.2195 28.6576C99.3196 28.5575 99.4407 28.5074 99.5827 28.5074C99.7281 28.5074 99.8508 28.5575 99.9509 28.6576C100.054 28.7544 100.106 28.8772 100.106 29.0257C100.106 29.1678 100.054 29.2889 99.9509 29.389C99.8508 29.4891 99.7281 29.5391 99.5827 29.5391ZM99.9703 35.7586H99.1759V30.7985H99.9703V35.7586Z" fill="#0D6EFD"/>
<path d="M105.129 35.7586H104.335V34.9836H104.315C103.97 35.5778 103.461 35.8748 102.789 35.8748C102.295 35.8748 101.908 35.7441 101.627 35.4825C101.349 35.2209 101.21 34.8738 101.21 34.4411C101.21 33.5143 101.756 32.975 102.847 32.8232L104.335 32.615C104.335 31.7721 103.994 31.3507 103.312 31.3507C102.715 31.3507 102.176 31.5542 101.695 31.961V31.1473C102.182 30.8373 102.744 30.6823 103.38 30.6823C104.546 30.6823 105.129 31.2991 105.129 32.5326V35.7586ZM104.335 33.2495L103.138 33.4142C102.77 33.4659 102.492 33.5579 102.305 33.6903C102.118 33.8195 102.024 34.0503 102.024 34.383C102.024 34.6251 102.11 34.8237 102.281 34.9787C102.455 35.1305 102.686 35.2064 102.973 35.2064C103.367 35.2064 103.692 35.0692 103.947 34.7947C104.205 34.517 104.335 34.1666 104.335 33.7436V33.2495Z" fill="#0D6EFD"/>
<path d="M110.162 35.0417H110.142V38.04H109.348V30.7985H110.142V31.6704H110.162C110.552 31.0117 111.124 30.6823 111.876 30.6823C112.516 30.6823 113.015 30.9051 113.373 31.3507C113.732 31.7931 113.911 32.3873 113.911 33.1332C113.911 33.9632 113.709 34.6284 113.305 35.1289C112.902 35.6262 112.349 35.8748 111.649 35.8748C111.006 35.8748 110.51 35.5971 110.162 35.0417ZM110.142 33.0412V33.7339C110.142 34.144 110.275 34.4927 110.539 34.7801C110.807 35.0643 111.147 35.2064 111.557 35.2064C112.038 35.2064 112.414 35.0223 112.685 34.6542C112.96 34.2861 113.097 33.7742 113.097 33.1187C113.097 32.5665 112.969 32.1338 112.714 31.8206C112.459 31.5073 112.114 31.3507 111.678 31.3507C111.216 31.3507 110.845 31.5122 110.564 31.8351C110.283 32.1548 110.142 32.5568 110.142 33.0412Z" fill="#0D6EFD"/>
<path d="M118.73 35.7586H117.936V34.9836H117.917C117.571 35.5778 117.062 35.8748 116.391 35.8748C115.897 35.8748 115.509 35.7441 115.228 35.4825C114.951 35.2209 114.812 34.8738 114.812 34.4411C114.812 33.5143 115.357 32.975 116.449 32.8232L117.936 32.615C117.936 31.7721 117.595 31.3507 116.914 31.3507C116.317 31.3507 115.777 31.5542 115.296 31.961V31.1473C115.784 30.8373 116.346 30.6823 116.982 30.6823C118.147 30.6823 118.73 31.2991 118.73 32.5326V35.7586ZM117.936 33.2495L116.74 33.4142C116.371 33.4659 116.094 33.5579 115.906 33.6903C115.719 33.8195 115.625 34.0503 115.625 34.383C115.625 34.6251 115.711 34.8237 115.882 34.9787C116.057 35.1305 116.287 35.2064 116.575 35.2064C116.969 35.2064 117.293 35.0692 117.548 34.7947C117.807 34.517 117.936 34.1666 117.936 33.7436V33.2495Z" fill="#0D6EFD"/>
<path d="M122.814 31.6026C122.675 31.496 122.475 31.4428 122.213 31.4428C121.874 31.4428 121.59 31.6026 121.361 31.9223C121.134 32.242 121.021 32.6779 121.021 33.2301V35.7586H120.227V30.7985H121.021V31.8206H121.041C121.154 31.4718 121.327 31.2006 121.559 31.0068C121.792 30.8098 122.052 30.7113 122.339 30.7113C122.546 30.7113 122.704 30.7339 122.814 30.7792V31.6026Z" fill="#0D6EFD"/>
<path d="M127.226 35.7586H126.432V34.9836H126.413C126.067 35.5778 125.559 35.8748 124.887 35.8748C124.393 35.8748 124.005 35.7441 123.724 35.4825C123.447 35.2209 123.308 34.8738 123.308 34.4411C123.308 33.5143 123.853 32.975 124.945 32.8232L126.432 32.615C126.432 31.7721 126.091 31.3507 125.41 31.3507C124.813 31.3507 124.273 31.5542 123.792 31.961V31.1473C124.28 30.8373 124.842 30.6823 125.478 30.6823C126.644 30.6823 127.226 31.2991 127.226 32.5326V35.7586ZM126.432 33.2495L125.236 33.4142C124.867 33.4659 124.59 33.5579 124.402 33.6903C124.215 33.8195 124.122 34.0503 124.122 34.383C124.122 34.6251 124.207 34.8237 124.378 34.9787C124.553 35.1305 124.783 35.2064 125.071 35.2064C125.465 35.2064 125.789 35.0692 126.044 34.7947C126.303 34.517 126.432 34.1666 126.432 33.7436V33.2495Z" fill="#0D6EFD"/>
<path d="M133.746 35.7102C133.559 35.8135 133.312 35.8652 133.005 35.8652C132.136 35.8652 131.702 35.3808 131.702 34.412V31.4767H130.85V30.7985H131.702V29.5876L132.496 29.3309V30.7985H133.746V31.4767H132.496V34.2715C132.496 34.6042 132.553 34.8415 132.666 34.9836C132.779 35.1257 132.966 35.1967 133.228 35.1967C133.428 35.1967 133.601 35.1418 133.746 35.032V35.7102Z" fill="#0D6EFD"/>
<path d="M136.88 35.8748C136.147 35.8748 135.561 35.644 135.122 35.1822C134.686 34.7172 134.468 34.102 134.468 33.3367C134.468 32.5036 134.696 31.8529 135.151 31.3846C135.606 30.9164 136.221 30.6823 136.996 30.6823C137.736 30.6823 138.312 30.9099 138.726 31.3653C139.142 31.8206 139.35 32.4519 139.35 33.2592C139.35 34.0503 139.126 34.6849 138.677 35.1628C138.232 35.6375 137.633 35.8748 136.88 35.8748ZM136.938 31.3507C136.428 31.3507 136.024 31.5251 135.727 31.8739C135.43 32.2194 135.282 32.6973 135.282 33.3076C135.282 33.8953 135.432 34.3587 135.732 34.6978C136.032 35.0369 136.434 35.2064 136.938 35.2064C137.452 35.2064 137.846 35.0401 138.12 34.7075C138.398 34.3749 138.537 33.9018 138.537 33.2883C138.537 32.6682 138.398 32.1903 138.12 31.8545C137.846 31.5186 137.452 31.3507 136.938 31.3507Z" fill="#0D6EFD"/>
<path d="M144.853 35.7586H144.059V34.9158H144.039C143.671 35.5552 143.103 35.8748 142.334 35.8748C141.711 35.8748 141.212 35.6536 140.838 35.2112C140.466 34.7656 140.28 34.1601 140.28 33.3948C140.28 32.5746 140.487 31.9175 140.9 31.4234C141.314 30.9293 141.864 30.6823 142.552 30.6823C143.234 30.6823 143.729 30.9503 144.039 31.4864H144.059V28.4154H144.853V35.7586ZM144.059 33.5159V32.7845C144.059 32.3841 143.926 32.045 143.661 31.7673C143.397 31.4896 143.061 31.3507 142.654 31.3507C142.17 31.3507 141.789 31.5283 141.511 31.8835C141.233 32.2388 141.094 32.7296 141.094 33.3561C141.094 33.9276 141.227 34.3797 141.491 34.7123C141.759 35.0417 142.118 35.2064 142.567 35.2064C143.009 35.2064 143.368 35.0466 143.642 34.7269C143.92 34.4072 144.059 34.0035 144.059 33.5159Z" fill="#0D6EFD"/>
<path d="M148.534 35.8748C147.801 35.8748 147.215 35.644 146.776 35.1822C146.34 34.7172 146.122 34.102 146.122 33.3367C146.122 32.5036 146.35 31.8529 146.805 31.3846C147.26 30.9164 147.876 30.6823 148.651 30.6823C149.39 30.6823 149.966 30.9099 150.38 31.3653C150.796 31.8206 151.005 32.4519 151.005 33.2592C151.005 34.0503 150.78 34.6849 150.331 35.1628C149.886 35.6375 149.287 35.8748 148.534 35.8748ZM148.592 31.3507C148.082 31.3507 147.679 31.5251 147.381 31.8739C147.084 32.2194 146.936 32.6973 146.936 33.3076C146.936 33.8953 147.086 34.3587 147.386 34.6978C147.687 35.0369 148.089 35.2064 148.592 35.2064C149.106 35.2064 149.5 35.0401 149.774 34.7075C150.052 34.3749 150.191 33.9018 150.191 33.2883C150.191 32.6682 150.052 32.1903 149.774 31.8545C149.5 31.5186 149.106 31.3507 148.592 31.3507Z" fill="#0D6EFD"/>
<path d="M151.973 35.5794V34.7269C152.406 35.0466 152.882 35.2064 153.402 35.2064C154.1 35.2064 154.449 34.9739 154.449 34.5089C154.449 34.3765 154.418 34.2651 154.357 34.1747C154.298 34.081 154.218 33.9987 154.114 33.9276C154.014 33.8566 153.895 33.7936 153.756 33.7387C153.62 33.6806 153.473 33.6209 153.315 33.5595C153.096 33.4723 152.902 33.3851 152.734 33.2979C152.569 33.2075 152.43 33.1074 152.317 32.9976C152.208 32.8846 152.124 32.757 152.065 32.615C152.011 32.4729 151.983 32.3066 151.983 32.116C151.983 31.8835 152.036 31.6785 152.143 31.5009C152.25 31.32 152.392 31.1699 152.569 31.0504C152.747 30.9277 152.949 30.8357 153.175 30.7743C153.404 30.713 153.64 30.6823 153.882 30.6823C154.311 30.6823 154.696 30.7566 155.035 30.9051V31.7092C154.67 31.4702 154.25 31.3507 153.775 31.3507C153.627 31.3507 153.493 31.3685 153.373 31.404C153.254 31.4363 153.15 31.4831 153.063 31.5445C152.979 31.6058 152.913 31.6801 152.865 31.7673C152.819 31.8513 152.797 31.9449 152.797 32.0482C152.797 32.1774 152.819 32.2856 152.865 32.3728C152.913 32.46 152.983 32.5375 153.073 32.6053C153.163 32.6731 153.273 32.7344 153.402 32.7893C153.532 32.8442 153.678 32.904 153.843 32.9686C154.063 33.0525 154.26 33.1397 154.434 33.2301C154.608 33.3173 154.757 33.4174 154.88 33.5304C155.002 33.6402 155.096 33.7678 155.161 33.9131C155.228 34.0584 155.262 34.2312 155.262 34.4314C155.262 34.6768 155.207 34.8899 155.098 35.0708C154.991 35.2516 154.847 35.4018 154.667 35.5212C154.486 35.6407 154.277 35.7295 154.042 35.7877C153.806 35.8458 153.559 35.8748 153.301 35.8748C152.79 35.8748 152.348 35.7764 151.973 35.5794Z" fill="#0D6EFD"/>
</svg>
